# xmcd
#
# Track frame offsets: 
#        300
#        51089
#        101878
#        122775
#        147649
#        168499
#        194748
#        228862
#        260941
#        293259
#        311490
#
# Disc length: 4394 seconds
#
# Revision: 0
# Processed by: cddbd v1.5.2PL0 Copyright (c) Steve Scherf et al.
# Submitted via: ExactAudioCopy v1.0b1
#
DISCID=ab11260b
DTITLE=Debbie Davies - Live!
DYEAR=2005
DGENRE=Contemporary Blues
TTITLE0=Can't Go On This Way
TTITLE1=Can't Live Like This No More
TTITLE2=Chicago Line
TTITLE3=Just Stepped In The Blues
TTITLE4=Leading Me Home
TTITLE5=Taking' It All To Vegas
TTITLE6=Blue And Lonesome
TTITLE7=Don't Take Advantage Of Me
TTITLE8=Half Caf Decaf
TTITLE9=Made Right In The USA
TTITLE10=Percolatin'
EXTD=
EXTT0=
EXTT1=
EXTT2=
EXTT3=
EXTT4=
EXTT5=
EXTT6=
EXTT7=
EXTT8=
EXTT9=
EXTT10=
PLAYORDER=
